<svg width="29" height="30" viewBox="0 0 29 30" fill="none" xmlns="http://www.w3.org/2000/svg">
<path d="M22.7083 13.5V15.6875C24.2554 15.6875 25.7392 16.3021 26.8331 17.396C27.9271 18.49 28.5417 19.9737 28.5417 21.5208C28.5417 22.7167 28.1771 23.825 27.5646 24.7437L25.975 23.1542C26.2229 22.6583 26.3542 22.1042 26.3542 21.5208C26.3542 20.5539 25.9701 19.6266 25.2863 18.9428C24.6026 18.2591 23.6753 17.875 22.7083 17.875V20.0625L19.4271 16.7812L22.7083 13.5ZM22.7083 29.5417V27.3542C21.1612 27.3542 19.6775 26.7396 18.5836 25.6456C17.4896 24.5517 16.875 23.0679 16.875 21.5208C16.875 20.325 17.2396 19.2167 17.8521 18.2979L19.4417 19.8875C19.1938 20.3833 19.0625 20.9375 19.0625 21.5208C19.0625 22.4878 19.4466 23.4151 20.1303 24.0988C20.8141 24.7826 21.7414 25.1667 22.7083 25.1667V22.9792L25.9896 26.2604L22.7083 29.5417ZM12.5 0.375C18.9458 0.375 24.1667 2.98542 24.1667 6.20833C24.1667 9.43125 18.9458 12.0417 12.5 12.0417C6.05418 12.0417 0.833344 9.43125 0.833344 6.20833C0.833344 2.98542 6.05418 0.375 12.5 0.375ZM0.833344 9.125C0.833344 12.3479 6.05418 14.9583 12.5 14.9583C14.1188 14.9583 15.6646 14.7979 17.0792 14.4917C15.6938 15.7458 14.6875 17.3937 14.2208 19.275L12.5 19.3333C6.05418 19.3333 0.833344 16.7229 0.833344 13.5V9.125ZM24.1667 9.125V12.0417H23.4375L22.5625 12.0854C23.5833 11.2104 24.1667 10.2042 24.1667 9.125ZM0.833344 16.4167C0.833344 19.6396 6.05418 22.25 12.5 22.25L13.9583 22.2062C14.0896 23.7521 14.5708 25.1667 15.3438 26.45L12.5 26.625C6.05418 26.625 0.833344 24.0146 0.833344 20.7917V16.4167Z" fill="black"/>
</svg>
