<svg width="69" height="73" viewBox="0 0 69 73" fill="none" xmlns="http://www.w3.org/2000/svg">
<path d="M54.4995 32.8632V38.292C58.339 38.292 62.0212 39.8172 64.7361 42.5322C67.451 45.2471 68.9762 48.9293 68.9762 52.7687C68.9762 55.7365 68.0714 58.4871 66.5514 60.7671L62.6065 56.8222C63.2217 55.5917 63.5475 54.2164 63.5475 52.7687C63.5475 50.3691 62.5942 48.0677 60.8974 46.3709C59.2006 44.6741 56.8992 43.7208 54.4995 43.7208V49.1496L46.3563 41.0064L54.4995 32.8632ZM54.4995 72.6743V67.2455C50.66 67.2455 46.9778 65.7203 44.2629 63.0053C41.548 60.2904 40.0228 56.6082 40.0228 52.7687C40.0228 49.801 40.9276 47.0504 42.4476 44.7704L46.3925 48.7153C45.7773 49.9458 45.4516 51.3211 45.4516 52.7687C45.4516 55.1684 46.4048 57.4698 48.1016 59.1666C49.7985 60.8634 52.0998 61.8167 54.4995 61.8167V56.3879L62.6427 64.5311L54.4995 72.6743ZM29.1652 0.290595C45.162 0.290595 58.1187 6.76893 58.1187 14.7673C58.1187 22.7657 45.162 29.2441 29.1652 29.2441C13.1684 29.2441 0.211777 22.7657 0.211777 14.7673C0.211777 6.76893 13.1684 0.290595 29.1652 0.290595ZM0.211777 22.0057C0.211777 30.0041 13.1684 36.4824 29.1652 36.4824C33.1825 36.4824 37.0189 36.0843 40.5295 35.3243C37.0912 38.4368 34.594 42.5265 33.4359 47.1952L29.1652 47.34C13.1684 47.34 0.211777 40.8616 0.211777 32.8632V22.0057ZM58.1187 22.0057V29.2441H56.3091L54.1376 29.3526C56.671 27.1811 58.1187 24.6839 58.1187 22.0057ZM0.211777 40.1016C0.211777 48.1 13.1684 54.5783 29.1652 54.5783L32.7844 54.4698C33.1101 58.3061 34.3045 61.8167 36.2226 65.0016L29.1652 65.4359C13.1684 65.4359 0.211777 58.9576 0.211777 50.9592V40.1016Z" fill="black"/>
</svg>
