<svg width="35" height="25" viewBox="0 0 35 25" fill="none" xmlns="http://www.w3.org/2000/svg">
<path d="M4.6875 6.60966C4.6875 10.0178 7.25854 12.5888 10.6667 12.5888C14.0748 12.5888 16.6458 10.0178 16.6458 6.60966C16.6458 3.20153 14.0748 0.630493 10.6667 0.630493C7.25854 0.630493 4.6875 3.20153 4.6875 6.60966ZM29.4583 5.66666H26.0417V10.7917H20.9167V14.2083H26.0417V19.3333H29.4583V14.2083H34.5833V10.7917H29.4583V5.66666ZM3.83333 24.4583H20.9167V22.75C20.9167 18.0401 17.0849 14.2083 12.375 14.2083H8.95833C4.24846 14.2083 0.416668 18.0401 0.416668 22.75V24.4583H3.83333Z" fill="black"/>
</svg>
