<svg width="33" height="34" viewBox="0 0 33 34" fill="none" xmlns="http://www.w3.org/2000/svg">
<path d="M25.9116 16.0467C25.1979 15.3329 24.3504 14.767 23.4175 14.3815C22.4847 13.9959 21.485 13.7983 20.4756 13.7999C19.4662 13.8015 18.4671 14.0023 17.5355 14.3907C16.6039 14.7792 15.7581 15.3478 15.0466 16.0637C14.3318 16.7763 13.7646 17.623 13.3776 18.5552C12.9905 19.4874 12.7913 20.4869 12.7913 21.4963C12.7913 22.5056 12.9905 23.5051 13.3776 24.4373C13.7646 25.3695 14.3318 26.2162 15.0466 26.9287C16.2783 28.156 17.889 28.9303 19.6167 29.1257C21.3444 29.3211 23.0874 28.9261 24.5621 28.005L29.875 33.2496L32.2496 30.875L26.9708 25.5621C28.9012 22.5383 28.4571 18.575 25.9116 16.0467ZM23.5029 24.5029C21.8287 26.1771 19.1296 26.16 17.4554 24.5029C15.7983 22.8288 15.7983 20.1296 17.4725 18.4554C19.1296 16.7983 21.8287 16.7983 23.5029 18.4554C25.16 20.1296 25.16 22.8288 23.5029 24.5029ZM12.6208 29.3375C11.5059 28.2111 10.644 26.8599 10.0925 25.3742C4.71123 24.4688 0.833313 21.9233 0.833313 18.9167V24.0417C0.833313 27.8171 6.94915 30.875 14.5 30.875C13.8166 30.4308 13.1846 29.9183 12.6208 29.3375ZM0.833313 10.375V15.5C0.833313 18.37 4.36956 20.83 9.37498 21.8208V21.4792C9.37498 19.8904 9.71665 18.3188 10.3658 16.8837C4.83081 16.0125 0.833313 13.4329 0.833313 10.375ZM14.5 0.125C6.94915 0.125 0.833313 3.18292 0.833313 6.95833C0.833313 10.375 5.95831 13.245 12.5354 13.7917H12.6208C14.6708 11.6392 17.5066 10.375 20.4791 10.375C22.0337 10.375 23.5712 10.6996 24.9891 11.3317C25.8509 10.9386 26.5964 10.3293 27.1532 9.56299C27.71 8.79669 28.0591 7.89942 28.1666 6.95833C28.1666 3.18292 22.0508 0.125 14.5 0.125Z" fill="black"/>
</svg>
