<svg width="30" height="30" viewBox="0 0 30 30" fill="none" xmlns="http://www.w3.org/2000/svg">
<path d="M5.29395 7.05882C5.29395 5.18671 6.03764 3.39127 7.36143 2.06748C8.68521 0.743695 10.4807 0 12.3528 0C14.2249 0 16.0203 0.743695 17.3441 2.06748C18.6679 3.39127 19.4116 5.18671 19.4116 7.05882C19.4116 8.93094 18.6679 10.7264 17.3441 12.0502C16.0203 13.374 14.2249 14.1176 12.3528 14.1176C10.4807 14.1176 8.68521 13.374 7.36143 12.0502C6.03764 10.7264 5.29395 8.93094 5.29395 7.05882Z" fill="black"/>
<path d="M0 19.4117C0 17.4476 1.59353 15.8823 3.54529 15.8823H14.5712C13.134 17.6194 12.3494 19.8043 12.3529 22.0588C12.3529 24.3582 13.1524 26.4706 14.4882 28.1347C13.7912 28.2017 13.0765 28.2353 12.3529 28.2353C9.07941 28.2353 6.03 27.5541 3.76765 26.1123C1.47 24.6476 0 22.3941 0 19.4117Z" fill="black"/>
<path d="M30 22.0589C30 24.165 29.1634 26.1849 27.6741 27.6741C26.1849 29.1634 24.165 30 22.0589 30C19.9527 30 17.9329 29.1634 16.4436 27.6741C14.9543 26.1849 14.1177 24.165 14.1177 22.0589C14.1177 19.9527 14.9543 17.9329 16.4436 16.4436C17.9329 14.9543 19.9527 14.1177 22.0589 14.1177C24.165 14.1177 26.1849 14.9543 27.6741 16.4436C29.1634 17.9329 30 19.9527 30 22.0589ZM25.3306 20.0365C25.4963 19.8708 25.5894 19.6461 25.5894 19.4118C25.5894 19.1775 25.4963 18.9528 25.3306 18.7871C25.1649 18.6214 24.9402 18.5283 24.7059 18.5283C24.4716 18.5283 24.2469 18.6214 24.0812 18.7871L22.0589 20.8112L20.0365 18.7871C19.8708 18.6214 19.6461 18.5283 19.4118 18.5283C19.1775 18.5283 18.9528 18.6214 18.7871 18.7871C18.6214 18.9528 18.5283 19.1775 18.5283 19.4118C18.5283 19.6461 18.6214 19.8708 18.7871 20.0365L20.8112 22.0589L18.7871 24.0812C18.705 24.1632 18.64 24.2606 18.5956 24.3678C18.5512 24.475 18.5283 24.5899 18.5283 24.7059C18.5283 24.8219 18.5512 24.9368 18.5956 25.044C18.64 25.1512 18.705 25.2486 18.7871 25.3306C18.8691 25.4127 18.9665 25.4777 19.0737 25.5221C19.1809 25.5665 19.2958 25.5894 19.4118 25.5894C19.5278 25.5894 19.6427 25.5665 19.7499 25.5221C19.8571 25.4777 19.9545 25.4127 20.0365 25.3306L22.0589 23.3065L24.0812 25.3306C24.1632 25.4127 24.2606 25.4777 24.3678 25.5221C24.475 25.5665 24.5899 25.5894 24.7059 25.5894C24.8219 25.5894 24.9368 25.5665 25.044 25.5221C25.1512 25.4777 25.2486 25.4127 25.3306 25.3306C25.4127 25.2486 25.4777 25.1512 25.5221 25.044C25.5665 24.9368 25.5894 24.8219 25.5894 24.7059C25.5894 24.5899 25.5665 24.475 25.5221 24.3678C25.4777 24.2606 25.4127 24.1632 25.3306 24.0812L23.3065 22.0589L25.3306 20.0365Z" fill="black"/>
</svg>
