<svg width="39" height="28" viewBox="0 0 39 28" fill="none" xmlns="http://www.w3.org/2000/svg">
<path d="M11.874 14.0522C15.822 14.0522 18.8004 11.031 18.8004 7.0261C18.8004 3.02122 15.822 0 11.874 0C7.92586 0 4.94748 3.02122 4.94748 7.0261C4.94748 11.031 7.92586 14.0522 11.874 14.0522ZM13.8529 15.9553H9.89496C4.43888 15.9553 0 20.458 0 25.9925V28H23.7479V25.9925C23.7479 20.458 19.309 15.9553 13.8529 15.9553ZM36.2017 6.50617L31.6639 11.1093L27.126 6.50617L24.3278 9.34471L28.8636 13.9458L24.3258 18.5489L27.1241 21.3874L31.6619 16.7843L36.2017 21.3894L39 18.5509L34.4622 13.9478L39 9.34471L36.2017 6.50617Z" fill="black"/>
</svg>
