<svg width="28" height="26" viewBox="0 0 28 26" fill="none" xmlns="http://www.w3.org/2000/svg">
<path d="M11.5 12C14.5376 12 17 9.31371 17 6C17 2.68629 14.5376 0 11.5 0C8.46243 0 6 2.68629 6 6C6 9.31371 8.46243 12 11.5 12Z" fill="black"/>
<path d="M11.9456 14.9275C8.04005 14.7815 0 16.7676 0 20.7544V22.2147C0 23.0179 0.643776 23.6751 1.43061 23.6751H13.6481C10.1144 19.6445 11.8884 15.0736 11.9456 14.9275ZM24.9356 20.7836C25.608 19.6153 25.937 18.1987 25.6223 16.6654C25.1359 14.2704 23.1616 12.3573 20.7868 12.0506C17.0243 11.5541 13.8483 14.7815 14.3491 18.6222C14.6638 21.0464 16.5236 23.0617 18.8698 23.5582C20.3719 23.8795 21.7596 23.5436 22.9041 22.8573L25.5651 25.5735C25.8326 25.8466 26.1954 26 26.5736 26C26.9519 26 27.3147 25.8466 27.5822 25.5735C27.8497 25.3005 28 24.9301 28 24.544C28 24.1578 27.8497 23.7875 27.5822 23.5144L24.9356 20.7836ZM20.0286 20.7544C18.4549 20.7544 17.1674 19.44 17.1674 17.8336C17.1674 16.2272 18.4549 14.9129 20.0286 14.9129C21.6023 14.9129 22.8898 16.2272 22.8898 17.8336C22.8898 19.44 21.6023 20.7544 20.0286 20.7544Z" fill="black"/>
</svg>
