<svg width="33" height="27" viewBox="0 0 33 27" fill="none" xmlns="http://www.w3.org/2000/svg">
<path d="M11.5505 13.4997C15.1961 13.4997 18.1507 10.4781 18.1507 6.74984C18.1507 3.02161 15.1961 0 11.5505 0C7.90484 0 4.95019 3.02161 4.95019 6.74984C4.95019 10.4781 7.90484 13.4997 11.5505 13.4997ZM16.1706 15.1871H15.3095C14.1648 15.725 12.8911 16.0309 11.5505 16.0309C10.2098 16.0309 8.94129 15.725 7.7914 15.1871H6.93027C3.10418 15.1871 0 18.3617 0 22.2745V24.4682C0 25.8656 1.10864 26.9994 2.4751 26.9994H16.6502C16.5264 26.6408 16.4749 26.2611 16.5161 25.8761L16.8668 22.6647L16.9286 22.0794L17.336 21.6628L21.3219 17.5865C20.0586 16.1258 18.2281 15.1871 16.1706 15.1871ZM18.5065 22.8493L18.1559 26.066C18.0991 26.6039 18.5426 27.0574 19.0634 26.9941L22.2037 26.6355L29.3144 19.3636L25.6173 15.5826L18.5065 22.8493ZM32.6403 14.1799L30.686 12.1814C30.2065 11.6909 29.4227 11.6909 28.9432 12.1814L26.994 14.1747L26.7826 14.3909L30.4849 18.1718L32.6403 15.9676C33.1199 15.4719 33.1199 14.6756 32.6403 14.1799Z" fill="black"/>
</svg>
