<svg width="18" height="18" viewBox="0 0 18 18" fill="none" xmlns="http://www.w3.org/2000/svg">
<path d="M17.25 2.73333L15.0916 0.574994C14.9061 0.398114 14.6596 0.299438 14.4033 0.299438C14.147 0.299438 13.9005 0.398114 13.715 0.574994L11.7958 2.49999H1.49998C1.19056 2.49999 0.893814 2.62291 0.675022 2.8417C0.456229 3.0605 0.333313 3.35724 0.333313 3.66666V16.5C0.333313 16.8094 0.456229 17.1062 0.675022 17.325C0.893814 17.5437 1.19056 17.6667 1.49998 17.6667H14.3333C14.6427 17.6667 14.9395 17.5437 15.1583 17.325C15.3771 17.1062 15.5 16.8094 15.5 16.5V5.85999L17.25 4.10999C17.4324 3.92734 17.5348 3.67978 17.5348 3.42166C17.5348 3.16354 17.4324 2.91598 17.25 2.73333ZM8.98415 10.7425L6.53998 11.285L7.12331 8.86416L12.6941 3.28166L14.5783 5.16583L8.98415 10.7425ZM15.2083 4.50083L13.3241 2.61666L14.4033 1.53749L16.2875 3.42166L15.2083 4.50083Z" fill="black"/>
</svg>
