<svg width="42" height="30" viewBox="0 0 42 30" fill="none" xmlns="http://www.w3.org/2000/svg">
<path d="M12.788 15.0559C17.04 15.0559 20.2476 11.8189 20.2476 7.52796C20.2476 3.23702 17.04 0 12.788 0C8.53598 0 5.32833 3.23702 5.32833 7.52796C5.32833 11.8189 8.53598 15.0559 12.788 15.0559ZM14.9193 17.0949H10.6567C4.78057 17.0949 0 21.9193 0 27.8492V30H25.576V27.8492C25.576 21.9193 20.7954 17.0949 14.9193 17.0949ZM38.9906 6.96874L29.8258 16.2002L27.0722 13.4213L24.0585 16.4626L29.8258 22.2785L42 10.0143L38.9906 6.96874Z" fill="black"/>
</svg>
